<svg viewBox="0 0 560 360" xmlns="http://www.w3.org/2000/svg">
    <polygon
        fill="white"
        stroke="black"
        stroke-width="2"
        points="250,72 226,82 216,90 204,94 190,98 181,103 172,109 165,121 161,131 159,142 162,170 164,185 171,203 176,210 185,214 191,218 211,228 212,230 235,239 243,242 255,244 263,245 263,245 285,244 298,242 330,233 352,217 367,201 373,194 379,173 382,163 383,143 383,136 382,127 379,122 374,117 365,109 360,101 358,95 352,88 346,85 333,81 327,78 319,73 314,72 304,70 281,69 258,71 254,71 248,72"
    />
</svg>